<?xml version="1.0" encoding="utf-8"?>
<!-- Generator: Adobe Illustrator 16.0.4, SVG Export Plug-In . SVG Version: 6.00 Build 0)  -->
<!DOCTYPE svg PUBLIC "-//W3C//DTD SVG 1.1//EN" "http://www.w3.org/Graphics/SVG/1.1/DTD/svg11.dtd">
<svg version="1.1" id="Layer_1" xmlns="http://www.w3.org/2000/svg" xmlns:xlink="http://www.w3.org/1999/xlink" x="0px" y="0px"
	 width="216px" height="108px" viewBox="0 0 216 108" enable-background="new 0 0 216 108" xml:space="preserve">
<g>
	<g>
		<path fill="#111" d="M79.2959,53.7275c-1.0532,0.3516-1.8525,0.4688-2.9253,0.4688c-3.9194,0-6.3184-2.75-6.3184-7.1377
			c0-4.3682,2.3989-7.1182,6.3184-7.1182c1.1113,0,1.9307,0.0977,2.9058,0.4102l0.897,0.292
			c0.1558,0.0586,0.2144,0.1562,0.1558,0.3125l-0.7021,2.2031c-0.0581,0.1562-0.1558,0.2148-0.3115,0.1562l-0.917-0.292
			c-0.5654-0.1758-1.1309-0.2539-2.0278-0.2539c-1.9502,0-3.1396,1.5791-3.1396,4.29c0,2.75,1.1895,4.3291,3.1396,4.3291
			c0.7217,0,1.3066-0.0586,2.0083-0.292l0.917-0.2734c0.1558-0.0586,0.2729,0,0.312,0.1562l0.7798,2.125
			c0.0586,0.1562,0.0195,0.2539-0.1558,0.3125L79.2959,53.7275z"/>
		<path fill="#111" d="M94.1934,47.0586c0,4.3682-2.3594,7.1377-6.2012,7.1377c-3.8608,0-6.2207-2.7695-6.2207-7.1377
			c0-4.3877,2.3599-7.1182,6.2207-7.1182C91.834,39.9404,94.1934,42.6709,94.1934,47.0586z M84.9502,47.0586
			c0,2.6719,1.1504,4.3291,3.042,4.3291s3.0229-1.6572,3.0229-4.3291c0-2.7305-1.1313-4.29-3.0229-4.29
			S84.9502,44.3281,84.9502,47.0586z"/>
		<path fill="#111" d="M101.2329,40.1553c3.8999,0,6.2402,2.6914,6.2402,6.9229c0,4.1338-2.4185,6.9033-6.2402,6.9033h-4.8364
			c-0.1558,0-0.2534-0.0977-0.2534-0.2539V40.4092c0-0.1562,0.0977-0.2539,0.2534-0.2539H101.2329z M99.3022,51.2314h1.9307
			c1.8916,0,3.0615-1.501,3.0615-4.1533c0-2.6719-1.1699-4.1533-3.0615-4.1533h-1.9307V51.2314z"/>
		<path fill="#111" d="M117.3594,45.499c0.1562,0,0.2539,0.0967,0.2539,0.2529v2.2432c0,0.1553-0.0977,0.2529-0.2539,0.2529
			h-4.7773v2.9834h6.376c0.1562,0,0.2539,0.0977,0.2539,0.2539v2.2422c0,0.1562-0.0977,0.2539-0.2539,0.2539h-9.2822
			c-0.1562,0-0.2539-0.0977-0.2539-0.2539V40.4092c0-0.1562,0.0977-0.2539,0.2539-0.2539h9.3799
			c0.1758,0,0.2529,0.1172,0.2139,0.293l-0.623,2.2617c-0.0391,0.1367-0.1367,0.2148-0.2734,0.2148h-5.791v2.5742H117.3594z"/>
	</g>
	<g>
		<path fill="#111" d="M125.2246,45.7334c0.2324-1.3486,1.0879-2.1455,2.3047-2.1455c0.291,0,0.5078,0.0576,0.7686,0.1592
			l0.2178,0.0869c0.0869,0.0439,0.1016,0.1016,0.0576,0.1748l-0.3037,0.5508c-0.0439,0.0723-0.1016,0.1006-0.1738,0.0576
			l-0.1455-0.0576c-0.1592-0.0586-0.3047-0.0879-0.4639-0.0879c-0.6816,0-1.1885,0.5225-1.3193,1.334l-0.2021,1.2324h1.6084
			c0.0869,0,0.1299,0.0576,0.1162,0.1445l-0.1016,0.5947c-0.0146,0.0723-0.0586,0.1162-0.1309,0.1162h-1.6377l-0.9717,5.9717
			c-0.0137,0.0723-0.0576,0.1162-0.1299,0.1162h-0.6816c-0.0869,0-0.1299-0.0576-0.1162-0.1445l0.957-5.9434h-0.6523
			c-0.0869,0-0.1309-0.0586-0.1152-0.1455l0.1016-0.5938c0.0137-0.0732,0.0566-0.1162,0.1299-0.1162h0.6807L125.2246,45.7334z"/>
		<path fill="#111" d="M134.5625,49.6904c0,1.7979-1,4.4355-3.7539,4.4355c-1.7246,0-2.7109-1.0576-2.7109-2.8115
			c0-1.8125,1.0156-4.4219,3.7695-4.4219C133.5771,46.8926,134.5625,47.9512,134.5625,49.6904z M129.04,51.2852
			c0,1.2471,0.6377,1.9717,1.7979,1.9717c2.1016,0,2.7969-2.1748,2.7969-3.5225c0-1.2471-0.6523-1.9717-1.7969-1.9717
			C129.7217,47.7627,129.04,49.9375,129.04,51.2852z"/>
		<path fill="#111" d="M140.293,47.6465c-0.0156,0.0732-0.0586,0.1162-0.1309,0.1162c-1.5801,0.0576-2.6816,1.3623-3.0879,3.8271
			l-0.3623,2.2754c-0.0146,0.0723-0.0576,0.1162-0.1299,0.1162h-0.6816c-0.0869,0-0.1309-0.0576-0.1162-0.1445l1.0732-6.6826
			c0.0137-0.0732,0.0576-0.1162,0.1299-0.1162h0.4639c0.0869,0,0.1309,0.043,0.1162,0.1299l-0.0732,1.1025
			c0.0156,0.1152,0.1016,0.1445,0.1895,0.0283c0.666-0.8691,1.4922-1.3623,2.5938-1.4062c0.0879,0,0.1309,0.0586,0.1172,0.1455
			L140.293,47.6465z"/>
	</g>
	<g>
		<path fill="#111" d="M81.8115,72.0605c0,0.1562-0.0977,0.2539-0.2539,0.2539h-2.6323c-0.1562,0-0.2534-0.0977-0.2534-0.2539
			v-5.4795h-5.0703v5.4795c0,0.1562-0.0977,0.2539-0.2534,0.2539h-2.6523c-0.1558,0-0.2534-0.0977-0.2534-0.2539V58.7422
			c0-0.1562,0.0977-0.2539,0.2534-0.2539h2.6523c0.1558,0,0.2534,0.0977,0.2534,0.2539v5.0898h5.0703v-5.0898
			c0-0.1562,0.0972-0.2539,0.2534-0.2539h2.6323c0.1562,0,0.2539,0.0977,0.2539,0.2539V72.0605z"/>
		<path fill="#111" d="M88.0117,70.4814l-0.585,1.6377c-0.0586,0.1367-0.1562,0.1953-0.2925,0.1953h-2.75
			c-0.1948,0-0.2729-0.1172-0.2144-0.293l2.7495-7.4492c0.7217-1.9883,1.3652-3.8994,1.8525-5.8691
			c0.0391-0.1367,0.1367-0.2148,0.2925-0.2148h3.6274c0.1558,0,0.2534,0.0781,0.2925,0.2148
			c0.4873,1.9697,1.1309,3.8809,1.8525,5.8691l2.7495,7.4492c0.0586,0.1758-0.0195,0.293-0.2144,0.293h-2.7495
			c-0.1367,0-0.2344-0.0586-0.2925-0.1953l-0.5854-1.6377H88.0117z M92.4775,66.9521c-0.5659-1.541-1.1899-3.374-1.4238-4.6416
			c-0.0586-0.2344-0.2925-0.2344-0.3511,0c-0.2534,1.2676-0.8579,3.0811-1.4233,4.6416l-0.2729,0.7793h3.7441L92.4775,66.9521z"/>
		<path fill="#111" d="M119.5381,70.4814l-0.585,1.6377c-0.0586,0.1367-0.1562,0.1953-0.293,0.1953h-2.75
			c-0.1943,0-0.2725-0.1172-0.2139-0.293l2.749-7.4492c0.7227-1.9883,1.3652-3.8994,1.8535-5.8691
			c0.0391-0.1367,0.1367-0.2148,0.292-0.2148h3.6279c0.1553,0,0.2529,0.0781,0.292,0.2148
			c0.4873,1.9697,1.1309,3.8809,1.8525,5.8691l2.75,7.4492c0.0586,0.1758-0.0195,0.293-0.2148,0.293h-2.75
			c-0.1367,0-0.2344-0.0586-0.292-0.1953l-0.585-1.6377H119.5381z M124.0039,66.9521c-0.5664-1.541-1.1895-3.374-1.4238-4.6416
			c-0.0586-0.2344-0.293-0.2344-0.3516,0c-0.2529,1.2676-0.8574,3.0811-1.4229,4.6416l-0.2725,0.7793h3.7441L124.0039,66.9521z"/>
		<path fill="#111" d="M134.6113,72.0605c0,0.1562-0.0977,0.2539-0.2539,0.2539h-2.6523c-0.1553,0-0.2529-0.0977-0.2529-0.2539
			V58.7422c0-0.1562,0.0977-0.2539,0.2529-0.2539h2.6523c0.1562,0,0.2539,0.0977,0.2539,0.2539V72.0605z"/>
		<path fill="#111" d="M140.793,72.0605c0,0.1562-0.0977,0.2539-0.2539,0.2539h-2.6523c-0.1562,0-0.2539-0.0977-0.2539-0.2539
			V58.7422c0-0.1562,0.0977-0.2539,0.2539-0.2539h2.6523c0.1562,0,0.2539,0.0977,0.2539,0.2539V72.0605z"/>
	</g>
	<g>
		<path fill="#111" d="M103.5146,62.7959l1.2598,3.8945c0.126,0.542-0.2451,1.0967-0.7852,1.2236c0,0-0.959,0.2393-1.2461-0.7891
			l-1.1562-4.0254c-0.1221-0.5625,0.2373-0.916,0.7012-1.0889C102.7588,61.8369,103.2578,61.9131,103.5146,62.7959z"/>
		<path fill="#111" d="M106.3027,61.7607l1.6787,5.7959c0.123,0.5605-0.2412,1.0947-0.7842,1.2236
			c0,0-0.9531,0.2178-1.2461-0.7715l-1.6807-5.7939c-0.1191-0.5615,0.2432-1.0967,0.7861-1.2236
			C105.0566,60.9912,106.0371,60.7354,106.3027,61.7607z"/>
		<path fill="#111" d="M110.6553,65.7734c0.126,0.542-0.2236,1.0986-0.7812,1.2236c0,0-1.1484,0.2061-1.3896-0.833
			l-1.1885-4.0947c-0.1201-0.5605,0.1152-1.0078,0.5225-1.125c0.4082-0.1152,0.959,0,1.2344,0.666L110.6553,65.7734z"/>
		<path fill="#111" d="M96.5762,58.4102c-0.207-0.6367,0.2383-1.1543,0.6602-1.2812c0.4219-0.1289,1.1719,0.1758,1.3711,0.8301
			l3.7617,9.9209c0.5605,1.0664,1.9668,1.1445,2.834,0.1846c0.2266,0.8154,0.8203,1.7568,2.2988,1.4082
			c1.5098-0.3564,1.2559-1.8545,1.2559-1.8545c0.5117,0.2363,1.2227,0.1396,1.2227,0.1396
			c0.9551-0.2285,1.5645-1.1836,1.3535-2.1289l-0.1582-0.707l2.6035-4.8711c0.2227-0.4688,0.8184-1.0586,1.459-0.9141l0.0625,0.0117
			c0.6543,0.168,1.0547,0.8223,0.9102,1.459l-3.668,9.5801c-0.3594,1.2598-0.8066,2.1309-2.4512,2.127l-6.8086-0.0117
			c-1.5098,0.0117-2.4473-0.9785-2.7832-2.3145L96.5762,58.4102z"/>
	</g>
</g>
</svg>
